<svg xmlns="http://www.w3.org/2000/svg" xmlns:xlink="http://www.w3.org/1999/xlink" width="100%" height="100%" version="1.1" viewBox="0 0 700 700" xml:space="preserve" style="fill-rule:evenodd;clip-rule:evenodd;stroke-linecap:round;stroke-linejoin:round;stroke-miterlimit:1.5"><g id="Artboard1" transform="matrix(0.27451,0,0,0.212121,0,0)"><rect width="2550" height="3300" x="0" y="0" style="fill:none"/><g transform="matrix(0.990601,0,0,1.55132,10.1663,4.88687)"><rect width="2500.65" height="2066.45" x="26.511" y="27.239" style="fill:#ebebeb;stroke:#000;stroke-width:3.31px"/></g><g><path d="M10,81.668L690,81.668" transform="matrix(3.64286,0,0,4.71429,0,18.328)" style="fill:none;stroke:#000;stroke-width:1px"/></g><g><path d="M10,81.668L690,81.668" transform="matrix(3.64286,0,0,4.71429,0,-337.862)" style="fill:none;stroke:#000;stroke-width:1px"/></g><g><path d="M10,81.668L690,81.668" transform="matrix(3.64286,0,0,4.71429,0,2867.85)" style="fill:none;stroke:#000;stroke-width:1px"/></g><g><path d="M10,203.367L690,203.367" transform="matrix(3.64286,0,0,4.71429,0,-199.206)" style="fill:none;stroke:#000;stroke-width:1px"/></g><g><path d="M10,276.379L690,276.379" transform="matrix(3.64286,0,0,4.71429,0,-187.214)" style="fill:none;stroke:#000;stroke-width:1px"/></g><g><path d="M10,330.117L690,330.117" transform="matrix(3.64286,0,0,4.71429,0,-84.3612)" style="fill:none;stroke:#000;stroke-width:1px"/></g><g><path d="M10,405.629L690,405.629" transform="matrix(3.64286,0,0,4.71429,0,-84.1545)" style="fill:none;stroke:#000;stroke-width:1px"/></g><g><path d="M10,476.258L690,476.258" transform="matrix(3.64286,0,0,4.71429,0,-60.9289)" style="fill:none;stroke:#000;stroke-width:1px"/></g><g><path d="M10,542.008L690,542.008" transform="matrix(3.64286,0,0,4.71429,0,-14.7027)" style="fill:none;stroke:#000;stroke-width:1px"/></g><g><path d="M10,618.027L690,618.027" transform="matrix(3.64286,0,0,4.71429,0,-16.89)" style="fill:none;stroke:#000;stroke-width:1px"/></g><g><path d="M543.665,85.556L543.665,159.969" transform="matrix(3.64286,0,0,4.71429,-355.504,0)" style="fill:none;stroke:#000;stroke-width:1px"/></g><g><text x="272.156" y="65.685" transform="matrix(3.64286,0,0,4.71429,0,0)" style="font-family:'ArialMT','Arial',sans-serif;font-size:50px">header</text></g><g><text x="173.851" y="65.685" transform="matrix(3.64286,0,0,4.71429,-2.18492e-13,359.16)" style="font-family:'ArialMT','Arial',sans-serif;font-size:50px">main</text></g><g><text x="49.967" y="65.685" transform="matrix(3.64286,0,0,4.71429,1588.56,359.16)" style="font-family:'ArialMT','Arial',sans-serif;font-size:50px">sidebar</text></g><g><text x="226.331" y="65.685" transform="matrix(3.64286,0,0,4.71429,2.07072e-13,712.381)" style="font-family:'ArialMT','Arial',sans-serif;font-size:50px">other-news</text></g><g><text x="199.976" y="65.685" transform="matrix(3.64286,0,0,4.71429,2.07072e-13,1068.57)" style="font-family:'ArialMT','Arial',sans-serif;font-size:50px">smarter-living</text></g><g><text x="259.668" y="65.685" transform="matrix(3.64286,0,0,4.71429,2.07072e-13,1424.76)" style="font-family:'ArialMT','Arial',sans-serif;font-size:50px">features</text></g><g><text x="244.409" y="65.685" transform="matrix(3.64286,0,0,4.71429,0,1780.95)" style="font-family:'ArialMT','Arial',sans-serif;font-size:50px">discovery</text></g><g><text x="204.102" y="65.685" transform="matrix(3.64286,0,0,4.71429,2.07072e-13,2137.14)" style="font-family:'ArialMT','Arial',sans-serif;font-size:50px">most-popular</text></g><g><text x="291.638" y="65.685" transform="matrix(3.64286,0,0,4.71429,0,2493.33)" style="font-family:'ArialMT','Arial',sans-serif;font-size:50px">news</text></g><g><text x="286.072" y="65.685" transform="matrix(3.64286,0,0,4.71429,0,2849.52)" style="font-family:'ArialMT','Arial',sans-serif;font-size:50px">footer</text></g></g></svg>