<svg xmlns="http://www.w3.org/2000/svg" xmlns:svg="http://www.w3.org/2000/svg" id="svg2" width="600" height="500" version="1.0"><metadata id="metadata7"/><g id="Contents" transform="translate(-2332.5396,-2092.093)"><rect style="color:#000;fill:#fff;fill-opacity:1;fill-rule:evenodd;stroke:none;stroke-width:.5;marker:none;visibility:visible;display:inline;overflow:visible" id="white_background" width="600" height="500" x="2332.54" y="2092.093"/><g id="color_wheel" transform="matrix(-1,0,0,1,5225.8456,-19.493952)"><path id="path2937" d="m 2493.306,2189.2139 0,57.375 0,57.375 49.875,-28.6875 49.875,-28.6875 -49.875,-28.6875 -49.875,-28.6875 z" style="color:#000;fill:#ff7f00;fill-opacity:1;fill-rule:nonzero;stroke:#000;stroke-width:.5;stroke-linecap:butt;stroke-linejoin:miter;stroke-miterlimit:4;stroke-opacity:1;stroke-dasharray:none;stroke-dashoffset:0;marker:none;visibility:visible;display:inline;overflow:visible"/><path id="path2935" d="m 2693.056,2189.2139 -49.875,28.6875 -49.875,28.6875 49.875,28.6875 49.875,28.6875 0,-57.375 0,-57.375 z" style="color:#000;fill:#ff007f;fill-opacity:1;fill-rule:nonzero;stroke:#000;stroke-width:.5;stroke-linecap:butt;stroke-linejoin:miter;stroke-miterlimit:4;stroke-opacity:1;stroke-dasharray:none;stroke-dashoffset:0;marker:none;visibility:visible;display:inline;overflow:visible"/><path id="path2933" d="m 2493.056,2304.2139 -49.875,28.6875 -49.875,28.6875 49.875,28.6875 49.875,28.6875 0,-57.375 0,-57.375 z" style="color:#000;fill:#7fff00;fill-opacity:1;fill-rule:nonzero;stroke:#000;stroke-width:.5;stroke-linecap:butt;stroke-linejoin:miter;stroke-miterlimit:4;stroke-opacity:1;stroke-dasharray:none;stroke-dashoffset:0;marker:none;visibility:visible;display:inline;overflow:visible"/><path id="path2931" d="m 2693.306,2304.2139 0,57.375 0,57.375 49.875,-28.6875 49.875,-28.6875 -49.875,-28.6875 -49.875,-28.6875 z" style="color:#000;fill:#7f00ff;fill-opacity:1;fill-rule:nonzero;stroke:#000;stroke-width:.5;stroke-linecap:butt;stroke-linejoin:miter;stroke-miterlimit:4;stroke-opacity:1;stroke-dasharray:none;stroke-dashoffset:0;marker:none;visibility:visible;display:inline;overflow:visible"/><path id="path2929" d="m 2493.306,2419.2139 0,57.375 0,57.375 49.875,-28.6875 49.875,-28.6875 -49.875,-28.6875 -49.875,-28.6875 z" style="color:#000;fill:#00ff7f;fill-opacity:1;fill-rule:nonzero;stroke:#000;stroke-width:.5;stroke-linecap:butt;stroke-linejoin:miter;stroke-miterlimit:4;stroke-opacity:1;stroke-dasharray:none;stroke-dashoffset:0;marker:none;visibility:visible;display:inline;overflow:visible"/><path id="path3078" d="m 2693.056,2419.2139 -49.875,28.6875 -49.875,28.6875 49.875,28.6875 49.875,28.6875 0,-57.375 0,-57.375 z" style="color:#000;fill:#007fff;fill-opacity:1;fill-rule:nonzero;stroke:#000;stroke-width:.5;stroke-linecap:butt;stroke-linejoin:miter;stroke-miterlimit:4;stroke-opacity:1;stroke-dasharray:none;stroke-dashoffset:0;marker:none;visibility:visible;display:inline;overflow:visible"/><path id="path4043" d="m 2534.6099,2262.2136 3.5714,-1.9643 110.3571,-0.089 4.1072,2.8572 55.625,96.4285 -0.089,3.3929 -54.2857,97.4107 -2.3214,0.7143 -3.2143,2.0536 -110.3572,-0.2679 -4.1964,-2.0536 -55.5357,-96.4285 0,-5.7143 56.3393,-96.3393 z" style="fill:#fff;fill-opacity:1;fill-rule:evenodd;stroke:none"/><path id="path3994" d="m 2063.5782,978.30387 -205.9077,0 -205.9076,0 102.9538,-178.32125 102.9538,-178.32126 102.9539,178.32125 102.9538,178.32126 z" transform="matrix(-0.418143,0,0,0.417003,3369.72,2003.17)" style="color:#000;fill:#fff;fill-opacity:1;fill-rule:nonzero;stroke:#000;stroke-width:1;stroke-linecap:butt;stroke-linejoin:miter;stroke-miterlimit:4;stroke-opacity:1;stroke-dasharray:none;stroke-dashoffset:0;marker:none;visibility:visible;display:inline;overflow:visible"/><path id="path3090" d="m 2493.0963,2304.0001 200.0735,115.0777" style="fill:none;stroke:#000;stroke-width:.5;stroke-linecap:butt;stroke-linejoin:miter;stroke-miterlimit:4;stroke-opacity:1;stroke-dasharray:none"/><path style="fill:none;stroke:#000;stroke-width:.5;stroke-linecap:butt;stroke-linejoin:miter;stroke-miterlimit:4;stroke-opacity:1;stroke-dasharray:none" id="path3984" d="m 2493.0963,2419.0776 200.0735,-115.0777"/><path id="path3986" d="m 2593.1809,2246.7488 0,229.7804" style="color:#000;fill:none;stroke:#000;stroke-width:.5;stroke-linecap:butt;stroke-linejoin:miter;stroke-miterlimit:4;stroke-opacity:1;stroke-dasharray:none;stroke-dashoffset:0;marker:none;visibility:visible;display:inline;overflow:visible"/><path style="color:#000;fill:#0ff;fill-opacity:1;fill-rule:nonzero;stroke:#000;stroke-width:1;stroke-linecap:butt;stroke-linejoin:miter;stroke-miterlimit:4;stroke-opacity:1;stroke-dasharray:none;stroke-dashoffset:0;marker:none;visibility:visible;display:inline;overflow:visible" id="path3038" d="m 2063.5782,978.30387 -205.9077,0 -205.9076,0 102.9538,-178.32125 102.9538,-178.32126 102.9539,178.32125 102.9538,178.32126 z" transform="matrix(-0.278574,0,0,-0.27961,3110.68,2735.27)"/><path style="color:#000;fill:#0f0;fill-opacity:1;fill-rule:nonzero;stroke:#000;stroke-width:1;stroke-linecap:butt;stroke-linejoin:miter;stroke-miterlimit:4;stroke-opacity:1;stroke-dasharray:none;stroke-dashoffset:0;marker:none;visibility:visible;display:inline;overflow:visible" id="path3044" d="m 2063.5782,978.30387 -205.9077,0 -205.9076,0 102.9538,-178.32125 102.9538,-178.32126 102.9539,178.32125 102.9538,178.32126 z" transform="matrix(-0.278574,0,0,0.27961,2995.68,2187.91)"/><path style="color:#000;fill:#00f;fill-opacity:1;fill-rule:nonzero;stroke:#000;stroke-width:1;stroke-linecap:butt;stroke-linejoin:miter;stroke-miterlimit:4;stroke-opacity:1;stroke-dasharray:none;stroke-dashoffset:0;marker:none;visibility:visible;display:inline;overflow:visible" id="path3048" d="m 2063.5782,978.30387 -205.9077,0 -205.9076,0 102.9538,-178.32125 102.9538,-178.32126 102.9539,178.32125 102.9538,178.32126 z" transform="matrix(-0.278574,0,0,0.27961,3225.68,2187.91)"/><path style="color:#000;fill:red;fill-opacity:1;fill-rule:nonzero;stroke:#000;stroke-width:1;stroke-linecap:butt;stroke-linejoin:miter;stroke-miterlimit:4;stroke-opacity:1;stroke-dasharray:none;stroke-dashoffset:0;marker:none;visibility:visible;display:inline;overflow:visible" id="path3052" d="m 2063.5782,978.30387 -205.9077,0 -205.9076,0 102.9538,-178.32125 102.9538,-178.32126 102.9539,178.32125 102.9538,178.32126 z" transform="matrix(-0.278574,0,0,0.27961,3110.68,1987.91)"/><path id="path3062" d="m 2063.5782,978.30387 -205.9077,0 -205.9076,0 102.9538,-178.32125 102.9538,-178.32126 102.9539,178.32125 102.9538,178.32126 z" transform="matrix(-0.278574,0,0,-0.27961,2995.68,2535.27)" style="color:#000;fill:#ff0;fill-opacity:1;fill-rule:nonzero;stroke:#000;stroke-width:1;stroke-linecap:butt;stroke-linejoin:miter;stroke-miterlimit:4;stroke-opacity:1;stroke-dasharray:none;stroke-dashoffset:0;marker:none;visibility:visible;display:inline;overflow:visible"/><path id="path3066" d="m 2063.5782,978.30387 -205.9077,0 -205.9076,0 102.9538,-178.32125 102.9538,-178.32126 102.9539,178.32125 102.9538,178.32126 z" transform="matrix(-0.278574,0,0,-0.27961,3225.68,2535.27)" style="color:#000;fill:#f0f;fill-opacity:1;fill-rule:nonzero;stroke:#000;stroke-width:1;stroke-linecap:butt;stroke-linejoin:miter;stroke-miterlimit:4;stroke-opacity:1;stroke-dasharray:none;stroke-dashoffset:0;marker:none;visibility:visible;display:inline;overflow:visible"/></g><g id="Secondary_colors" transform="translate(24.9999,-2.92969e-5)"><text style="font-size:15px;font-style:normal;font-weight:400;text-align:start;text-anchor:start;fill:#000;fill-opacity:1;stroke:none;font-family:sans" id="text2012" x="2357.474" y="2346.917" xml:space="preserve"><tspan id="tspan2014" x="2357.474" y="2346.917">Violet</tspan></text><text style="font-size:15px;font-style:normal;font-weight:400;text-align:start;text-anchor:start;fill:#000;fill-opacity:1;stroke:none;font-family:sans" id="text2046" x="2482.562" y="2531.917" xml:space="preserve"><tspan id="tspan2048" x="2482.562" y="2531.917">Azure</tspan></text><text id="text1966" x="2486.361" y="2161.917" xml:space="preserve" style="font-size:15px;font-style:normal;font-weight:400;text-align:start;text-anchor:start;fill:#000;fill-opacity:1;stroke:none;font-family:sans"><tspan id="tspan1968" x="2486.361" y="2161.917">Rose</tspan></text><text style="font-size:15px;font-style:normal;font-variant:normal;font-weight:400;font-stretch:normal;line-height:125%;text-anchor:end;fill:#000;fill-opacity:1;stroke:none;font-family:sans" id="text2004" x="2736.883" y="2158.936" xml:space="preserve"><tspan id="tspan2006" x="2736.883" y="2158.936">Orange</tspan></text><text style="font-size:15px;font-style:normal;font-variant:normal;font-weight:400;font-stretch:normal;text-indent:0;text-align:center;text-decoration:none;line-height:125%;letter-spacing:normal;word-spacing:normal;text-transform:none;direction:ltr;text-anchor:middle;color:#000;fill:#000;fill-opacity:1;fill-rule:nonzero;stroke:none;stroke-width:1px;marker:none;visibility:visible;display:inline;overflow:visible;font-family:sans" id="text2008" x="2843.927" y="2333.16" xml:space="preserve"><tspan id="tspan2010" x="2843.927" y="2333.16">Chartreuse</tspan><tspan id="tspan2858" x="2843.927" y="2351.91">Green</tspan></text><text id="text1974" x="2730.284" y="2533.16" xml:space="preserve" style="font-size:15px;font-style:normal;font-variant:normal;font-weight:400;font-stretch:normal;line-height:125%;text-anchor:end;fill:#000;fill-opacity:1;stroke:none;font-family:sans"><tspan id="tspan1976" x="2730.284" y="2533.16">Spring</tspan><tspan id="tspan2860" x="2730.284" y="2551.91">Green</tspan></text></g><g id="Primary_colors" transform="translate(24.9999,-2.92969e-5)"><text id="text2050" x="2608.237" y="2131.882" xml:space="preserve" style="font-size:18px;font-style:normal;font-variant:normal;font-weight:700;font-stretch:normal;text-align:center;line-height:125%;text-anchor:middle;fill:#000;fill-opacity:1;stroke:none;font-family:sans"><tspan id="tspan2052" x="2608.237" y="2131.882">Red</tspan></text><text style="font-size:18px;font-style:normal;font-variant:normal;font-weight:700;font-stretch:normal;text-align:center;line-height:125%;text-anchor:middle;fill:#000;fill-opacity:1;stroke:none;font-family:sans" id="text1970" x="2603.712" y="2563.305" xml:space="preserve"><tspan id="tspan1972" x="2603.712" y="2563.305">Cyan</tspan></text><text style="font-size:18px;font-style:normal;font-variant:normal;font-weight:700;font-stretch:normal;line-height:125%;text-anchor:end;fill:#000;fill-opacity:1;stroke:none;font-family:sans" id="text2000" x="2839.59" y="2241.882" xml:space="preserve"><tspan id="tspan2002" x="2839.59" y="2241.882">Yellow</tspan></text><text id="text1982" x="2838.71" y="2451.873" xml:space="preserve" style="font-size:18px;font-style:normal;font-variant:normal;font-weight:700;font-stretch:normal;text-indent:0;text-decoration:none;line-height:125%;letter-spacing:normal;word-spacing:normal;text-transform:none;direction:ltr;text-anchor:end;color:#000;fill:#000;fill-opacity:1;fill-rule:nonzero;stroke:none;stroke-width:1px;marker:none;visibility:visible;display:inline;overflow:visible;font-family:sans"><tspan id="tspan1984" x="2838.71" y="2451.873">Green</tspan></text><text id="text1986" x="2356.265" y="2238.305" xml:space="preserve" style="font-size:18px;font-style:normal;font-variant:normal;font-weight:700;font-stretch:normal;text-align:start;line-height:125%;text-anchor:start;fill:#000;fill-opacity:1;stroke:none;font-family:sans"><tspan id="tspan1988" x="2356.265" y="2238.305">Magenta</tspan></text><text style="font-size:18px;font-style:normal;font-variant:normal;font-weight:700;font-stretch:normal;text-align:start;line-height:125%;text-anchor:start;fill:#000;fill-opacity:1;stroke:none;font-family:sans" id="text1996" x="2386.221" y="2451.882" xml:space="preserve"><tspan id="tspan1998" x="2386.221" y="2451.882">Blue</tspan></text></g></g></svg>